PathFileType	4	(X/Y/Z)	..\data\2015032\dynamic\2015032_C5_01.trc
DataRate	CameraRate	NumFrames	NumMarkers	Units	OrigDataRate	OrigDataStartFrame	OrigNumFrames
100.000000	100.000000	4	48	mm	100.000000	144	165
Frame#	Time	L_IAS			L_IPS			R_IPS			R_IAS			L_FTC			L_FLE			L_FAX			L_TTC			L_FAL			L_FCC			L_FM1			L_FM2			L_FM5			R_FTC			R_FLE			R_FAX			R_TTC			R_FAL			R_FCC			R_FM1			R_FM2			R_FM5			CV7			TV10			SXS			SJN			L_SIA			L_SRS			L_SAA			L_SAE			L_HLE			L_HME			L_UOA			L_RSP			L_UHE			L_HM2			L_HM5			R_SIA			R_SRS			R_SAA			R_SAE			R_HLE			R_HME			R_UOA			R_RSP			R_UHE			R_HM2			R_HM5			
		X1	Y1	Z1	X2	Y2	Z2	X3	Y3	Z3	X4	Y4	Z4	X5	Y5	Z5	X6	Y6	Z6	X7	Y7	Z7	X8	Y8	Z8	X9	Y9	Z9	X10	Y10	Z10	X11	Y11	Z11	X12	Y12	Z12	X13	Y13	Z13	X14	Y14	Z14	X15	Y15	Z15	X16	Y16	Z16	X17	Y17	Z17	X18	Y18	Z18	X19	Y19	Z19	X20	Y20	Z20	X21	Y21	Z21	X22	Y22	Z22	X23	Y23	Z23	X24	Y24	Z24	X25	Y25	Z25	X26	Y26	Z26	X27	Y27	Z27	X28	Y28	Z28	X29	Y29	Z29	X30	Y30	Z30	X31	Y31	Z31	X32	Y32	Z32	X33	Y33	Z33	X34	Y34	Z34	X35	Y35	Z35	X36	Y36	Z36	X37	Y37	Z37	X38	Y38	Z38	X39	Y39	Z39	X40	Y40	Z40	X41	Y41	Z41	X42	Y42	Z42	X43	Y43	Z43	X44	Y44	Z44	X45	Y45	Z45	X46	Y46	Z46	X47	Y47	Z47	X48	Y48	Z48	

145	1.44	1646.568481445313	935.848083496094	-368.8148193359376	1489.7109375	942.594177246094	-308.3739013671876	1483.040283203125	935.9114990234377	-200.1350402832032	1636.418823242188	931.2873535156252	-135.2369689941407	1584.128051757813	864.1716308593752	-426.4696350097657	1531.492431640625	439.0276794433595	-370.0703125000001	1516.387573242188	377.7601623535157	-366.2934570312501	1569.135620117188	369.0561218261719	-309.1322937011719	1447.59716796875	60.3823928833008	-285.0973815917969	1401.096557617188	23.5011215209961	-239.7644653320313	1598.277465820313	21.79789352416993	-221.4086151123047	1595.736572265625	28.84826850891114	-281.3276062011719	1546.204833984375	19.70685386657715	-327.0773010253907	1552.508178710938	832.7614746093752	-88.69994354248048	1753.178100585938	471.3327941894532	-130.6853332519532	1742.3330078125	423.1405334472657	-125.3233032226563	1800.1015625	403.480438232422	-178.1312713623047	1613.643188476563	109.8948440551758	-140.6265563964844	1575.852416992188	70.37741851806642	-195.1630859375001	1762.172485351563	32.01105880737305	-154.2679443359375	1747.749877929688	50.80478668212892	-107.8662414550782	1692.366943359375	51.40490341186525	-72.57138824462892	1502.211547851563	1425.661987304688	-244.6589508056641	1442.937622070313	1206.243286132813	-254.7256164550782	1627.095825195313	1170.443481445313	-245.0544586181641	1600.415283203125	1335.872680664063	-238.1261291503907	1434.55029296875	1233.989624023438	-369.4014282226563	1465.844482421875	1355.863403320313	-353.4841613769532	1545.621826171875	1369.354248046875	-432.4323120117189	1592.8017578125	1367.811401367188	-433.0182495117189	1591.052978515625	1059.012573242188	-480.9102478027345	1550.641845703125	1039.606201171875	-424.3638916015626	1549.383911132813	1022.078857421875	-462.445770263672	1692.266235351563	830.1185302734377	-426.7969055175782	1655.076904296875	832.896423339844	-492.5575561523439	1721.109130859375	750.9318237304689	-425.3055114746095	1651.763549804688	757.5592041015626	-499.8719787597657	1417.850219726563	1232.030517578125	-137.826904296875	1447.939575195313	1349.291015625	-149.6239013671875	1504.769409179688	1353.549072265625	-55.00658798217775	1549.529663085938	1353.303833007813	-38.82048034667969	1516.419799804688	1043.654907226563	-19.31441307067871	1501.481079101563	1037.908935546875	-93.01416015625001	1488.692504882813	1010.870788574219	-55.23085403442384	1634.803466796875	819.5261230468752	-49.52421188354494	1575.53515625	812.4652099609377	-2.612636327743531	1664.047119140625	734.5286254882814	-39.20124816894532	1570.707275390625	738.1618041992189	-0.3403171598911286	
146	1.45	1657.270874023438	934.0247192382815	-369.6642456054688	1500.71240234375	941.5273437500002	-308.2747802734376	1494.202514648438	934.9243164062502	-199.9574127197266	1648.109741210938	930.1038208007815	-135.9459075927735	1593.727294921875	862.756042480469	-427.2000427246095	1535.1220703125	438.6305236816407	-370.5737609863282	1519.251831054688	377.5564880371094	-366.6595153808594	1572.143920898438	368.1998596191407	-309.6944580078126	1447.6328125	60.73282623291017	-284.6832580566407	1401.248413085938	23.98154067993164	-239.2078552246094	1598.312622070313	21.8069019317627	-221.4785766601563	1595.702392578125	28.7926139831543	-281.3958129882813	1546.12939453125	19.6058406829834	-327.0650939941407	1564.0009765625	831.8370361328127	-88.7058792114258	1767.157592773438	470.8467407226564	-130.5792541503907	1758.675415039063	421.6111755371095	-125.3103485107422	1817.193603515625	405.2407836914064	-177.9510955810547	1651.506958007813	100.5813217163086	-141.9699096679688	1617.386352539063	58.83473587036134	-197.0632781982422	1805.090942382813	33.03294372558594	-154.1818542480469	1788.892211914063	50.75395584106447	-107.9959106445313	1733.27978515625	47.51409149169923	-73.29522705078126	1514.470458984375	1424.520263671875	-244.7988891601563	1454.833374023438	1204.974365234375	-255.3255462646485	1638.714965820313	1168.985229492188	-245.3693389892579	1612.387939453125	1334.45654296875	-238.1113586425782	1446.861938476563	1233.339111328125	-370.4012451171876	1478.305786132813	1355.061767578125	-354.0344543457032	1558.629272460938	1368.393310546875	-432.6892395019532	1605.804565429688	1366.850341796875	-432.7775878906251	1610.293579101563	1058.834716796875	-483.2343139648439	1568.33642578125	1037.863037109375	-427.8480529785157	1568.954345703125	1020.673828125	-465.8868408203126	1715.958740234375	832.7211914062502	-425.7489013671876	1681.075805664063	834.494567871094	-492.758514404297	1748.025390625	754.8134765625001	-423.6940002441407	1680.894165039063	759.0339965820314	-500.4807434082032	1429.23193359375	1230.802978515625	-138.9105072021485	1459.800415039063	1348.01806640625	-150.1687927246094	1516.209350585938	1351.871337890625	-55.26970291137697	1560.887451171875	1351.629272460938	-38.93336486816407	1523.843627929688	1042.554321289063	-19.87266540527344	1508.424560546875	1037.265014648438	-93.95822906494142	1495.85986328125	1010.243103027344	-56.08812713623048	1636.9521484375	815.6565551757815	-48.39234161376955	1576.936645507813	810.0582275390627	-2.057669639587403	1663.72314453125	729.7934570312501	-37.75752258300782	1570.180053710938	735.8869018554689	0.3311730027198792	
147	1.46	1667.978271484375	932.1556396484377	-370.4808654785157	1511.670288085938	940.3289184570315	-308.1557617187501	1505.370239257813	933.7930908203127	-199.7686462402344	1659.854248046875	928.7890625000002	-136.6024322509766	1603.419189453125	861.2703857421877	-427.8814086914064	1538.9794921875	438.2810668945314	-371.0267944335938	1522.333374023438	377.4314880371094	-366.9962768554688	1575.37548828125	367.3676757812501	-310.2283020019532	1447.729736328125	61.18444824218751	-284.2563476562501	1401.464111328125	24.59417724609376	-238.6304016113282	1598.333251953125	21.8343505859375	-221.5628204345704	1595.664672851563	28.73930549621583	-281.4825134277344	1546.052001953125	19.51525688171387	-327.0308532714844	1575.581298828125	830.7287597656252	-88.71363067626955	1780.151611328125	469.7219848632814	-130.2255249023438	1774.054565429688	419.5737609863282	-125.1694259643555	1833.3916015625	406.5995178222657	-177.3768005371094	1689.3994140625	92.22982025146486	-143.9725189208985	1659.302368164063	48.61316680908205	-199.8034057617188	1847.366455078125	35.40696334838868	-154.5313873291016	1829.441162109375	51.780574798584	-108.5379791259766	1773.86767578125	44.56831359863282	-74.5794143676758	1526.748413085938	1423.260375976563	-244.8797607421876	1466.701538085938	1203.586181640625	-255.7788848876954	1650.360717773438	1167.41162109375	-245.6902313232422	1624.393920898438	1332.916870117188	-238.1073455810547	1459.114379882813	1232.555786132813	-371.2416992187501	1490.703247070313	1354.12744140625	-354.4814758300782	1571.515991210938	1367.276611328125	-432.9084777832032	1618.673583984375	1365.750854492188	-432.5494995117189	1629.346313476563	1058.621826171875	-485.3812866210939	1586.002685546875	1036.1015625	-431.0327758789064	1588.516479492188	1019.258361816406	-469.0642395019532	1739.518432617188	835.4359130859377	-424.7313842773439	1706.7666015625	836.2877197265627	-492.8342285156251	1774.588745117188	758.8443603515626	-422.0552062988282	1709.619140625	760.8052978515626	-500.8410949707032	1440.736206054688	1229.471923828125	-139.8160705566407	1471.756225585938	1346.642456054688	-150.59033203125	1527.848510742188	1350.123046875	-55.47492599487306	1572.456298828125	1349.85498046875	-39.00524902343751	1531.436157226563	1041.360107421875	-20.47896385192871	1515.306884765625	1036.546630859375	-94.8239212036133	1503.19091796875	1009.565368652344	-56.95450592041017	1639.162963867188	811.9283447265627	-47.30399322509766	1578.453369140625	807.7828369140627	-1.558766722679139	1663.427978515625	725.2166137695314	-36.42724609375001	1569.775390625	733.7948608398439	0.9379029273986819	
148	1.47	1678.705322265625	930.2730102539065	-371.2673950195313	1522.623779296875	939.0010375976565	-308.0182800292969	1516.57861328125	932.5294189453127	-199.5693969726563	1671.667358398438	927.3876953125002	-137.2166748046875	1613.22412109375	859.7283935546877	-428.5018615722657	1543.117065429688	437.9947814941407	-371.4349975585938	1525.684936523438	377.3997497558594	-367.3091430664063	1578.881469726563	366.5733947753907	-310.7492675781251	1447.913940429688	61.7706756591797	-283.8404235839844	1401.754516601563	25.38559913635255	-238.0595703125001	1598.34912109375	21.88826370239258	-221.6687164306641	1595.631469726563	28.69340133666993	-281.5907592773438	1545.981689453125	19.44346809387207	-326.9862365722657	1587.313110351563	829.4800415039065	-88.71550750732423	1792.247192382813	467.9948120117189	-129.6431579589844	1788.52685546875	417.0744934082032	-124.9253616333008	1848.740844726563	407.5696105957032	-176.4425964355469	1727.045166015625	84.9520721435547	-146.5935363769532	1701.208129882813	39.86650085449219	-203.308578491211	1888.675415039063	39.13404846191407	-155.4029541015625	1869.145629882813	53.8818817138672	-109.5730972290039	1813.90576171875	42.59381484985352	-76.45509338378908	1539.049926757813	1421.9072265625	-244.9007720947266	1478.573364257813	1202.084228515625	-256.0863647460938	1662.037109375	1165.748168945313	-246.0099639892579	1636.439697265625	1331.283081054688	-238.1064147949219	1471.323364257813	1231.665771484375	-371.9336853027344	1503.049438476563	1353.084838867188	-354.8284912109376	1584.294921875	1366.042114257813	-433.0820312500001	1631.4228515625	1364.552856445313	-432.3236694335939	1648.1904296875	1058.401733398438	-487.3213500976564	1603.610473632813	1034.368530273438	-433.8749084472657	1608.0302734375	1017.861999511719	-471.9332885742189	1762.940307617188	838.2811279296877	-423.7574462890626	1732.10107421875	838.2769775390627	-492.7952880859376	1800.767822265625	763.0202026367189	-420.415496826172	1737.847900390625	762.8679199218751	-500.959197998047	1452.36474609375	1228.065673828125	-140.5431060791016	1483.80615234375	1345.189819335938	-150.892578125	1539.677001953125	1348.33447265625	-55.62808990478517	1584.230102539063	1348.005737304688	-39.03561401367188	1539.218383789063	1040.1103515625	-21.13101387023926	1522.210083007813	1035.766479492188	-95.60090637207033	1510.716430664063	1008.864685058594	-57.84721755981447	1641.47216796875	808.3645019531252	-46.25835418701173	1580.119262695313	805.6639404296877	-1.120938062667847	1663.202880859375	720.8254394531251	-35.19902420043946	1569.525146484375	731.9096069335939	1.471831202507019	
